<svg width="200" height="231" viewBox="0 0 200 231" fill="none" xmlns="http://www.w3.org/2000/svg">
<path d="M0.52357 81.442C1.98734 70.9976 3.6787 64.6226 8.44011 55.4376C8.70995 54.9171 9.24981 54.5918 9.83612 54.5918C10.6274 54.5918 11.2959 55.177 11.4103 55.96C13.3878 69.4942 16.3449 75.2103 23.472 82.6302C25.0525 84.1292 26.5015 85.4269 27.8905 86.5683C37.2267 94.2395 49.9596 95.4843 61.9868 96.6494C73.798 99.185 79.8003 101.446 88.8304 107.748C94.4729 112.919 97.6414 116.799 100.01 122.565C101.816 126.96 102.252 131.768 102.252 136.52C102.252 140.304 101.882 144.085 100.995 147.763C96.9095 164.699 91.7916 175.213 79.4935 191.863C71.1178 201.844 64.5406 207.717 49.1485 218.733C40.1592 223.635 33.45 226.387 24.224 228.611C16.4105 230.494 8.34128 231 0.304064 231H0.129665C-0.137778 231 0.0851067 107.793 0.124097 87.2655C0.127846 85.292 0.249658 83.3965 0.52357 81.442Z" fill="url(#paint0_linear_313_711)"/>
<path d="M79.3875 16.3958C71.5379 8.36241 65.5778 4.92015 51.8506 1.30187C51.5599 1.22522 51.3516 0.961253 51.3516 0.660546C51.3516 0.295737 51.6473 0 52.0121 0H132.17C138.238 0 144.344 0.508727 150.07 2.51503C151.682 3.07998 153.565 3.78024 155.902 4.68451C161.777 7.51289 165.094 9.4404 171.088 14.0535C173.476 16.0524 174.783 17.1909 176.929 19.3236C180.331 22.9834 182.772 25.6901 185.194 28.6012C188.742 32.8673 191.793 37.5187 194.5 42.3626C197.114 47.0389 200 52.4574 200 53.5791C200 55.6286 193.341 59.5488 188.027 63.2409C178.882 69.3447 173.196 72.1405 164.371 76.1233C158.8 78.215 154.717 79.5611 150.512 80.6093C144.059 82.2178 137.374 82.5645 130.724 82.5645H128.111C123.283 82.5645 118.399 82.4324 113.755 81.1106C113.071 80.9158 112.395 80.6999 111.712 80.4545C107.114 78.8024 103.149 75.7561 99.726 72.2691C99.4146 71.9519 99.1078 71.6322 98.803 71.3068C95.592 67.8795 93.3885 64.4695 92.2029 59.9251C91.4402 57.0016 91.0141 53.2338 90.9046 50.2143L90.776 46.6694C90.5823 41.3291 90.2489 35.9261 88.5107 30.8728C86.7545 25.7673 84.1533 21.7705 79.3875 16.3958Z" fill="#0084CC"/>
<path fill-rule="evenodd" clip-rule="evenodd" d="M71.3791 62.8865C73.8754 59.1009 75.3285 54.5645 75.3285 49.6882C75.3285 36.4444 64.6095 25.7083 51.3869 25.7083C38.1643 25.7083 27.4453 36.4444 27.4453 49.6882C27.4453 62.932 38.1643 73.6682 51.3869 73.6682C57.6261 73.6682 63.3078 71.2778 67.5691 67.3614C65.2645 69.1168 62.3888 70.1588 59.2701 70.1588C51.6913 70.1588 45.5475 64.0052 45.5475 56.4142C45.5475 48.8233 51.6913 42.6696 59.2701 42.6696C66.8489 42.6696 72.9928 48.8233 72.9928 56.4142C72.9928 58.7543 72.4089 60.9578 71.3791 62.8865Z" fill="#D9D9D9"/>
<defs>
<linearGradient id="paint0_linear_313_711" x1="51.1261" y1="54.5918" x2="51.1261" y2="231" gradientUnits="userSpaceOnUse">
<stop offset="0.2" stop-color="#D9D9D9"/>
<stop offset="1" stop-color="#A5A5A5"/>
</linearGradient>
</defs>
</svg>
