<svg width="50" height="50" viewBox="0 0 50 50" fill="none" xmlns="http://www.w3.org/2000/svg">
<path fill-rule="evenodd" clip-rule="evenodd" d="M50 25C50 38.807 38.807 50 25 50C11.1929 50 0 38.807 0 25C0 11.1929 11.1929 0 25 0C38.807 0 50 11.1929 50 25ZM17.4241 17.4241C18.1563 16.6919 19.3435 16.6919 20.0758 17.4241L25 22.3482L29.924 17.4242C30.6562 16.6919 31.8435 16.6919 32.5758 17.4242C33.308 18.1564 33.308 19.3436 32.5758 20.0758L27.6515 25L32.5758 29.924C33.308 30.6562 33.308 31.8435 32.5758 32.5758C31.8435 33.308 30.6562 33.308 29.924 32.5758L25 27.6518L20.0758 32.5758C19.3435 33.308 18.1564 33.308 17.4241 32.5758C16.6919 31.8435 16.6919 30.6562 17.4241 29.9242L22.3482 25L17.4241 20.0758C16.6918 19.3435 16.6918 18.1564 17.4241 17.4241Z" fill="#0084CC"/>
</svg>
